<svg version="1.1" id="Layer_1" xmlns="http://www.w3.org/2000/svg" xmlns:xlink="http://www.w3.org/1999/xlink" x="0px" y="0px"
	 width="100%" viewBox="0 0 1024 352" enable-background="new 0 0 1024 352" xml:space="preserve">
<path fill="#000000" opacity="1.000000" stroke="none" 
	d="
M642.952759,240.820709 
	C644.149963,235.626053 644.972778,230.718262 647.386658,226.497330 
	C646.363281,224.987061 645.230469,225.500031 644.599976,226.093842 
	C640.265198,230.176270 634.252380,232.417343 631.375610,238.094070 
	C630.042542,240.724640 627.825745,242.863724 625.397095,243.954514 
	C617.611084,247.451553 610.873535,252.974274 602.244995,254.937317 
	C594.457153,256.709137 581.140198,250.593658 578.462402,243.147263 
	C578.020386,241.918121 578.455322,240.888062 578.657593,239.753586 
	C579.266907,236.335449 580.188904,232.934555 578.436829,229.506943 
	C577.551453,227.774857 578.102356,225.952469 578.836426,224.197220 
	C582.411926,215.646759 586.632446,207.366348 590.544373,198.994110 
	C593.764709,192.101852 598.760559,185.478958 606.305359,181.937408 
	C608.470093,180.921265 609.801514,179.562759 609.344604,177.176407 
	C608.244995,176.188263 607.053589,176.191956 606.337524,176.778473 
	C600.938354,181.200821 593.492981,181.076996 587.959534,185.155670 
	C587.028259,185.842087 585.538269,186.194931 585.119568,187.084579 
	C581.945679,193.828735 574.890808,191.916626 569.513367,195.064697 
	C568.922729,190.688339 569.565857,187.464920 573.030151,186.014420 
	C582.708130,181.962158 591.051636,175.600983 600.244202,170.716904 
	C607.850281,166.675766 616.135376,163.895630 624.364380,163.297318 
	C629.586975,162.917603 636.252136,164.238037 640.779114,168.836044 
	C642.416260,170.498901 644.219666,171.926941 646.065369,173.360016 
	C649.015442,175.650513 647.843018,178.984039 646.497742,181.376801 
	C644.857117,184.294983 642.191223,183.053833 640.100220,181.339798 
	C633.677612,176.074890 628.547119,175.827576 620.947449,179.997787 
	C611.718872,185.061844 606.029419,193.435226 599.899475,201.502365 
	C594.064209,209.181747 590.202332,217.823044 587.963684,227.006760 
	C585.301208,237.929016 588.061035,243.235199 596.182617,246.100494 
	C598.999329,247.094223 601.681152,246.947540 604.439575,245.835480 
	C612.718933,242.497635 619.120544,236.664062 625.661621,230.795639 
	C636.953979,220.664551 647.169006,209.451019 658.311218,199.179672 
	C662.909485,194.940781 666.075500,189.572891 669.270325,184.212067 
	C671.458191,180.540894 673.691101,176.745438 677.200500,174.036194 
	C678.786194,172.812042 679.165771,170.973389 679.593018,169.211517 
	C680.746704,164.453156 682.965942,160.586914 687.754395,158.633072 
	C688.492493,158.331909 689.623535,157.748947 689.677368,157.207291 
	C690.240723,151.542358 695.373657,148.523117 697.327515,143.998459 
	C699.642822,138.636993 702.804932,134.162979 706.417358,129.861404 
	C714.473572,120.268295 721.475464,109.811356 730.248840,100.809196 
	C731.071411,99.965233 731.925171,99.044174 733.193542,99.139923 
	C738.230957,99.520187 740.637817,95.790276 741.956665,92.254112 
	C745.177368,83.618614 751.754211,77.369102 756.645569,69.946907 
	C758.240784,67.526222 761.211975,66.725578 763.989685,65.999008 
	C768.985107,64.692307 772.275208,62.450821 774.660889,56.969093 
	C777.412659,50.646156 783.867676,46.538971 791.094360,45.384228 
	C795.670288,44.653030 800.134705,53.445396 797.197083,58.040722 
	C792.865906,64.815910 787.911499,71.232986 783.165710,77.722008 
	C778.704895,83.821198 771.350708,87.271873 768.698242,94.832291 
	C766.983643,99.719589 761.039978,101.132683 758.856567,105.899376 
	C757.128906,109.671211 754.515625,112.863503 751.646179,115.940910 
	C746.962585,120.964035 741.724976,125.217712 735.965271,128.865860 
	C734.551697,129.761200 732.690430,130.372269 732.112671,131.901581 
	C729.272339,139.419235 721.739868,143.250046 718.074585,150.081833 
	C717.762634,150.663376 717.423157,151.382980 716.895569,151.673309 
	C708.184998,156.466492 704.564758,166.100281 696.942566,172.246704 
	C688.899292,178.732697 683.017883,187.858429 674.568298,194.236954 
	C673.550964,195.004913 672.538635,196.178436 672.184570,197.361664 
	C669.759766,205.465591 667.118347,213.472580 662.356445,221.274780 
	C668.484802,221.785370 670.800598,217.034210 673.219299,214.199951 
	C683.056580,202.672501 694.601868,193.108261 706.277588,183.675552 
	C715.899597,175.902023 725.768250,168.390762 737.204834,163.343292 
	C739.631775,162.272156 742.515869,161.471588 744.794373,162.773621 
	C747.071350,164.074814 746.205261,166.996719 746.083008,169.273132 
	C745.677307,176.827026 740.769836,182.269745 736.999023,188.232361 
	C736.568665,188.912918 735.535217,189.296280 735.288269,189.996246 
	C729.841614,205.437393 718.956665,218.915756 719.016907,236.372742 
	C719.049072,245.685532 723.107300,249.010513 731.829651,245.689819 
	C738.070557,243.313889 743.744812,239.764694 749.492737,236.413818 
	C750.565125,235.788651 751.604187,234.579956 752.006531,233.415298 
	C755.165955,224.270569 762.178284,217.770065 768.306274,210.946304 
	C776.159912,202.201019 783.061462,192.464493 792.367615,185.109192 
	C796.501587,181.841827 799.683228,177.444565 804.419312,174.957581 
	C811.082031,171.458908 819.578186,175.429657 820.044495,182.770264 
	C820.369995,187.894165 816.804382,192.160385 813.678528,195.892731 
	C810.513733,199.671692 808.037109,204.165421 803.321716,206.646606 
	C796.416199,210.280212 792.893982,218.118820 786.114075,221.688995 
	C777.695801,226.121887 770.327087,231.803436 762.975403,237.680023 
	C758.874573,240.958069 758.146729,245.746292 756.400085,250.088287 
	C755.849060,251.457962 756.424377,253.116730 757.921387,253.996521 
	C759.522949,254.937729 760.720154,254.047928 761.925171,253.021942 
	C769.355347,246.695480 776.985168,240.589859 784.189270,234.016953 
	C788.095520,230.452942 791.195496,226.020721 794.824341,222.134369 
	C807.956970,208.070007 822.063416,194.992615 836.458740,182.263550 
	C841.759705,177.576263 848.213074,174.185440 854.175903,170.256500 
	C857.070923,168.348938 860.064270,169.634689 862.806274,170.558594 
	C865.669006,171.523132 868.437744,171.523834 871.130493,170.674805 
	C882.058899,167.229095 892.932434,163.665985 903.543457,159.247849 
	C916.260925,153.952637 929.807007,151.245422 943.117126,147.860992 
	C946.261047,147.061584 949.423889,148.192368 952.479553,148.842545 
	C955.527771,149.491119 955.429688,153.937622 952.572266,157.027618 
	C944.315735,165.956314 934.900208,173.707016 926.542114,182.486572 
	C923.092529,186.109985 919.736816,190.587067 916.057983,193.280258 
	C910.335815,197.469360 906.253357,203.190079 900.518982,207.227219 
	C896.537170,210.030533 893.219177,213.804535 889.723450,217.264923 
	C881.984985,224.925385 875.813477,234.169891 865.954712,239.717667 
	C863.845093,240.904770 863.003479,244.349487 861.584167,246.757980 
	C859.269470,250.685913 856.555298,254.152985 852.283020,256.232117 
	C849.973999,257.355804 845.732910,267.421692 846.129883,269.855011 
	C846.458191,271.866913 847.836609,272.618469 849.581055,272.910645 
	C854.510986,273.736511 859.434082,274.146149 864.355164,272.735657 
	C866.586975,272.096008 868.863403,271.592773 871.142822,271.146362 
	C872.445068,270.891296 874.056396,270.661255 874.387207,272.452789 
	C874.645020,273.849060 873.837769,275.051117 872.416321,275.575531 
	C871.327026,275.977478 870.178711,276.216278 869.075195,276.583405 
	C861.457092,279.117981 853.940796,281.630890 845.623779,281.224091 
	C836.346436,280.770264 831.250671,273.234528 835.300537,265.073944 
	C840.375183,254.848648 847.691711,246.365570 855.687256,238.363419 
	C863.497742,230.546570 870.838135,222.223694 879.023560,214.830154 
	C884.862305,209.556320 890.936584,204.414459 896.643616,199.056656 
	C902.790710,193.285675 908.761230,187.213348 914.859070,181.335403 
	C922.026917,174.425949 929.075012,167.341110 937.291443,161.614777 
	C938.934143,160.469894 939.537720,158.898224 940.032593,156.849823 
	C931.379333,156.539001 924.200867,160.517960 916.511292,162.425186 
	C911.030029,163.784683 906.814270,168.039062 901.524109,168.237549 
	C895.062561,168.479950 890.114868,171.963379 884.436584,173.825043 
	C877.271606,176.174088 869.827759,177.802933 862.400330,179.183350 
	C855.431152,180.478592 849.837891,183.007812 844.331238,188.105865 
	C839.141541,192.910492 834.175720,198.334442 828.121094,202.192093 
	C825.536011,203.839172 823.423462,205.793930 821.376404,207.932495 
	C819.026245,210.387619 816.975586,213.060471 813.747803,214.637405 
	C808.505371,217.198547 805.941162,222.570450 802.093018,226.600098 
	C798.693665,230.159729 796.166870,234.532623 791.569336,236.941925 
	C790.542480,237.480042 790.031616,239.037354 789.333679,240.156876 
	C788.809143,240.998184 788.582947,242.330734 787.852173,242.691254 
	C779.949036,246.590836 776.317383,255.579086 768.310059,259.188538 
	C762.959106,261.600586 756.959839,261.273560 751.240479,262.065216 
	C749.716248,262.276184 748.056946,261.023865 748.092468,259.421570 
	C748.172363,255.812668 744.830322,253.829544 744.410950,250.313293 
	C744.024597,247.074234 741.755432,248.841827 739.917969,249.775330 
	C733.296936,253.139023 726.442139,255.396469 718.866028,253.325653 
	C712.541443,251.596909 707.695923,245.235291 708.115784,238.628189 
	C708.541565,231.927002 708.196045,225.102859 711.328674,218.771683 
	C712.363220,216.680771 712.899597,214.386734 714.998596,213.013519 
	C716.167358,212.248917 717.051025,211.160599 717.295044,209.843826 
	C719.277100,199.147888 726.087341,191.022018 731.815857,182.316849 
	C732.614990,181.102509 733.868591,180.045486 733.326843,178.253586 
	C732.198792,176.810577 730.014832,176.861160 729.320984,177.602966 
	C726.218323,180.920059 721.620178,182.397995 718.829712,185.587738 
	C716.718933,188.000443 714.657898,190.187073 711.981506,191.785751 
	C706.981018,194.772751 702.996704,198.888809 698.893372,202.920609 
	C697.518433,204.271606 695.644348,205.381714 693.799377,205.921341 
	C691.356201,206.635910 689.877258,207.359238 690.657532,210.327805 
	C691.104187,212.027054 689.586182,213.114700 688.292725,213.803696 
	C677.681946,219.455627 671.756226,229.772858 664.032349,238.263565 
	C661.158081,241.423187 657.947449,244.258560 655.293701,247.688461 
	C653.002136,250.650391 650.582214,253.123886 649.260620,256.952942 
	C648.053711,260.449707 644.777222,263.289368 642.205444,266.237793 
	C640.492126,268.202118 638.591370,267.891083 636.526672,266.253479 
	C634.514893,264.657898 632.319092,263.537506 633.449402,260.300262 
	C635.260376,255.113602 637.158691,249.961914 640.519531,245.567993 
	C641.583008,244.177505 641.866943,242.548935 642.952759,240.820709 
M774.120972,71.225662 
	C774.288391,68.922195 772.574585,68.814560 771.902039,70.132523 
	C769.907410,74.041367 765.930298,75.778030 763.202026,78.871170 
	C758.295959,84.433334 753.807312,90.354332 748.850586,95.822479 
	C744.872070,100.211494 741.340332,104.931854 737.500305,109.408974 
	C736.478577,110.600197 734.239197,111.495941 735.279114,114.278404 
	C737.944885,112.405540 741.108032,112.183365 743.066833,108.841614 
	C747.418762,101.417053 754.373413,96.052254 759.702087,89.381866 
	C762.580261,85.779068 768.167603,85.181602 769.554321,80.199455 
	C770.423401,77.077087 772.098816,74.442017 774.120972,71.225662 
M801.026367,197.585022 
	C806.740662,192.031540 808.802002,187.767059 807.543518,183.910080 
	C795.177490,191.389709 787.471985,203.074966 778.788574,214.727158 
	C782.962769,214.794724 784.745728,211.903564 786.958008,210.207840 
	C791.761597,206.525818 797.334595,203.617050 801.026367,197.585022 
z"/>
<path fill="#000000" opacity="1.000000" stroke="none" 
	d="
M477.521118,79.493774 
	C464.269989,89.518288 454.276520,102.191200 443.863342,114.441994 
	C441.090485,117.704216 437.452301,119.847473 434.735107,123.395164 
	C426.313629,134.390564 418.108643,145.391617 411.505768,157.665833 
	C409.362610,161.649719 407.007263,165.870224 404.031952,169.661530 
	C401.682678,172.655090 400.045563,177.599136 400.523224,182.151260 
	C400.900879,185.750412 404.051819,187.071732 408.342743,185.149414 
	C413.351990,182.905289 417.994324,179.898544 422.167908,176.296814 
	C424.830688,173.998856 427.712433,172.096313 430.688538,170.237686 
	C439.709961,164.603592 447.086487,156.838013 455.641998,150.605621 
	C461.907501,146.041412 466.892517,140.039032 473.276825,135.602570 
	C475.487823,134.066177 477.011597,131.463882 478.652954,129.205765 
	C480.399078,126.803551 482.831512,125.482979 485.375275,124.201584 
	C488.086060,122.836075 490.568665,122.647972 492.311249,125.542542 
	C493.896515,128.175781 494.486938,131.148438 491.571442,133.138718 
	C482.186523,139.545319 475.314178,148.816849 466.004944,155.276398 
	C464.585846,156.261078 463.737640,157.544556 462.896576,159.041092 
	C459.772217,164.600540 454.964478,168.716431 450.303375,172.907013 
	C447.341034,175.570312 444.043549,177.874786 442.105408,181.507080 
	C441.794769,182.089294 441.480438,182.773468 440.971436,183.130600 
	C430.383453,190.559845 424.226624,201.944031 415.806549,211.303604 
	C415.010620,212.188324 414.338013,213.119156 413.076721,213.301544 
	C410.333160,213.698273 408.858643,214.765152 409.726929,217.981323 
	C410.292053,220.074341 408.848755,222.020355 407.362335,223.232956 
	C400.620239,228.733109 398.996765,237.054764 395.567230,244.339279 
	C394.511810,246.581116 392.162445,248.061401 392.055298,250.811035 
	C392.011627,251.931137 391.201416,253.106903 392.318115,254.067871 
	C393.367828,254.971191 394.447998,254.343933 395.590027,254.057266 
	C400.683197,252.778961 404.675873,249.338318 408.693817,246.474518 
	C417.687256,240.064346 426.007721,232.704559 434.543823,225.660736 
	C438.125275,222.705383 441.095734,218.496201 445.157837,216.746140 
	C453.053253,213.344589 457.253601,205.745346 464.468140,201.646530 
	C471.648895,197.566940 478.354828,192.626663 485.136414,187.874557 
	C499.669830,177.690491 514.821167,168.425354 529.829590,159.017654 
	C545.128235,149.428040 561.020874,140.553528 578.124573,134.288574 
	C581.152954,133.179276 584.438599,133.311447 587.508972,133.729004 
	C591.053223,134.210999 592.977234,138.257095 591.564148,141.687927 
	C589.996460,145.494370 590.528687,150.448135 585.726440,152.602737 
	C585.148743,152.861938 584.852478,154.003357 584.644348,154.793457 
	C581.210022,167.833237 570.479492,176.146393 563.764099,187.057205 
	C562.722900,188.748917 561.657715,190.432312 559.221191,190.436127 
	C558.515564,190.437225 557.420959,191.046997 557.168884,191.653671 
	C555.408081,195.892105 551.441711,198.318893 548.965942,201.814941 
	C545.807556,206.275040 541.906860,209.594086 537.524231,212.489807 
	C533.479126,215.162491 531.791687,219.690048 528.674316,223.089478 
	C527.346008,224.537918 526.284790,226.536667 524.617432,227.385788 
	C518.209534,230.649078 515.210632,237.406403 509.938477,241.528061 
	C499.575989,249.629227 491.114105,259.958099 479.325989,266.509857 
	C475.738037,268.503998 472.942352,272.712097 468.931244,275.066162 
	C466.199677,276.669281 464.048340,276.052155 462.128571,274.357574 
	C459.676147,272.192749 462.533966,270.957611 463.444305,269.446716 
	C467.766205,262.273438 475.781982,259.231262 481.400391,253.426437 
	C487.382080,247.246216 494.098450,241.593964 501.024200,236.671158 
	C506.466248,232.802933 509.903137,226.544083 516.493530,224.261261 
	C517.057678,224.065842 517.560547,223.449539 517.908691,222.910431 
	C525.864014,210.591599 538.171204,202.378067 547.581787,191.500717 
	C559.137390,178.143997 571.377136,165.202988 579.541077,149.226471 
	C580.226013,147.885941 580.537781,146.787613 579.782288,145.526276 
	C578.961914,144.156555 577.472656,143.875275 576.265869,144.398834 
	C573.095642,145.774261 568.265442,144.236969 567.166809,149.471802 
	C567.041321,150.069763 565.910339,150.868240 565.237793,150.875656 
	C559.124817,150.943069 555.413330,155.781464 550.453613,158.091888 
	C547.432678,159.499161 545.152710,162.841034 541.041443,161.732971 
	C539.932739,161.434158 538.846191,162.634201 538.326416,163.658615 
	C536.956665,166.358521 534.398865,167.758530 532.087219,169.260330 
	C522.611755,175.416306 513.046814,181.482895 503.359436,187.240921 
	C498.899628,189.891769 494.229858,192.686844 489.342834,194.830963 
	C488.069427,195.389648 487.040344,196.708939 486.134735,197.863708 
	C483.517242,201.201294 480.620880,203.959793 476.104614,204.453323 
	C475.021698,204.571671 473.821991,205.171829 473.002808,205.912079 
	C465.045380,213.102753 457.665009,221.063416 449.063812,227.362137 
	C443.705963,231.285751 439.068512,236.575912 432.410675,238.720978 
	C431.556427,238.996216 430.657684,239.783279 430.215973,240.576309 
	C428.348969,243.928238 426.550415,247.020386 421.753326,245.434464 
	C420.449615,245.003448 419.350769,246.204041 418.624847,247.457962 
	C414.914886,253.866150 409.155334,257.472046 402.619690,260.797272 
	C397.748932,263.275421 393.186981,263.175079 388.301025,263.084595 
	C382.254944,262.972656 379.329285,256.237885 380.832733,250.417618 
	C383.598114,239.712006 390.758850,231.586777 395.752899,222.242630 
	C398.700989,216.726593 403.021820,211.731354 406.662689,206.535767 
	C409.308167,202.760620 412.247467,199.655441 415.492157,196.604065 
	C416.518066,195.639328 417.075592,194.299484 416.138428,193.011383 
	C415.294189,191.850998 414.122681,192.417313 412.963135,192.754395 
	C409.598999,193.732376 406.079041,193.820480 402.654449,194.361725 
	C398.020813,195.094055 397.418152,192.851196 395.600983,189.197601 
	C389.860840,177.656479 396.526428,168.652481 400.559479,159.183929 
	C402.297913,155.102570 405.869781,151.957657 408.209076,147.912323 
	C413.180573,139.315140 417.761688,130.207565 424.573669,122.867256 
	C433.524323,113.222420 440.534271,101.737030 452.108582,94.478951 
	C455.671295,92.244797 457.655212,87.640823 460.841370,84.628967 
	C468.595581,77.298920 475.750793,69.456787 482.362823,61.100281 
	C484.076294,58.934711 486.525665,58.378418 489.018738,58.499405 
	C490.410492,58.566940 491.078735,60.006519 491.335388,61.419777 
	C491.830475,64.145691 491.138916,66.377731 488.676849,67.860245 
	C484.012634,70.668747 480.919922,74.975914 477.521118,79.493774 
z"/>
<path fill="#000000" opacity="1.000000" stroke="none" 
	d="
M148.341797,163.420151 
	C148.311142,166.391174 147.213654,167.808441 144.468323,167.990906 
	C141.906662,168.161163 140.952850,166.726227 140.248764,164.647751 
	C138.483017,159.435364 140.010178,154.136856 139.765076,148.883011 
	C138.837143,128.992279 145.297775,109.924194 146.453278,90.281548 
	C146.822449,84.005959 149.917114,77.804665 146.860748,71.230515 
	C145.800461,68.949852 148.573013,67.025757 150.874512,66.357330 
	C153.564255,65.576141 156.561981,64.470634 159.149780,64.961746 
	C170.687592,67.151367 182.199661,64.581688 193.205170,63.031017 
	C213.026428,60.238213 232.995819,57.563354 252.572571,52.946209 
	C259.766754,51.249474 267.086517,53.538910 274.368317,52.881721 
	C277.665222,52.584175 281.021881,53.004860 284.351196,52.998394 
	C291.676819,52.984158 295.137604,57.540405 292.545807,64.407501 
	C291.566010,67.003593 291.147308,69.402351 291.370392,72.120293 
	C291.822479,77.628517 289.191284,82.072960 285.908661,86.160355 
	C285.096558,87.171555 283.570343,87.784279 283.709320,89.290695 
	C284.447479,97.291862 279.494751,102.216743 274.073395,106.663605 
	C271.532715,108.747597 271.145142,111.812355 269.419800,114.107719 
	C265.263123,119.637672 262.704590,126.364334 256.859619,130.684174 
	C255.550232,131.651901 255.191803,133.843414 254.250916,135.383133 
	C248.992828,143.987732 242.285782,151.520981 236.327301,159.603943 
	C224.309998,175.905991 211.189468,191.310211 198.055939,206.670425 
	C190.213501,215.842484 182.557846,225.226257 173.617340,233.546432 
	C168.910416,237.926773 164.163376,242.403702 159.170746,246.355743 
	C152.331696,251.769318 146.051315,257.901917 138.451996,262.447205 
	C132.442612,266.041534 126.309425,269.481415 120.696953,273.826447 
	C115.499908,277.849792 109.110481,279.892090 103.009460,282.456238 
	C95.153160,285.758026 87.370667,287.654175 78.947861,287.322937 
	C72.545341,287.071136 67.675743,283.809143 63.343121,279.455322 
	C62.245846,278.352692 61.145393,277.305908 62.357380,275.614075 
	C63.360718,274.213501 64.666245,273.978821 66.308990,274.226990 
	C69.836098,274.759827 73.553467,276.030212 75.724487,278.279633 
	C78.791412,281.457306 82.014473,280.794037 84.751198,279.791534 
	C94.871803,276.084137 105.279488,272.650452 114.327225,266.815948 
	C120.081055,263.105560 125.755112,259.001038 131.300095,254.847855 
	C136.285965,251.113434 141.663452,247.770966 146.616196,243.891769 
	C158.512177,234.574417 169.567520,224.399231 179.851547,213.276779 
	C191.227158,200.973770 200.861023,187.287430 211.787659,174.663696 
	C217.719330,167.810715 222.731125,160.268112 229.364334,153.836304 
	C233.709793,149.622772 236.431854,143.182663 240.693039,138.336105 
	C250.150482,127.579430 256.571289,114.693031 265.327728,103.459564 
	C271.681458,95.308418 276.810272,86.556381 280.185486,76.734596 
	C281.504578,72.896103 281.912415,68.964256 282.595306,65.051437 
	C283.145935,61.896599 281.600891,60.467365 278.437683,60.332916 
	C269.149750,59.938137 259.906464,60.891079 250.694321,61.617222 
	C237.002884,62.696453 223.622391,66.323807 209.891342,67.326584 
	C206.508041,67.573662 203.546280,69.699905 200.317490,69.891350 
	C192.556992,70.351501 184.942322,72.186371 177.214310,72.368767 
	C172.383865,72.482780 167.585175,72.842743 162.769928,73.031586 
	C158.879974,73.184135 157.538040,75.340233 157.394623,78.769150 
	C156.718872,94.925133 153.233261,110.669304 150.644409,126.557854 
	C149.043549,136.382751 148.571426,146.395538 147.712753,156.334351 
	C147.520584,158.558670 149.739899,160.623169 148.341797,163.420151 
z"/>
<path fill="#000000" opacity="1.000000" stroke="none" 
	d="
M227.802338,283.337402 
	C234.743332,281.557098 231.180099,288.276062 233.693436,290.330719 
	C234.843658,291.271027 232.140518,293.658142 229.675400,294.030182 
	C223.354858,294.984039 219.336990,293.233856 216.522293,288.541840 
	C215.141113,286.239441 214.540695,284.324432 216.850494,282.425751 
	C219.085785,280.588318 221.578033,279.938110 224.189545,281.510132 
	C225.269775,282.160400 225.816254,283.691559 227.802338,283.337402 
z"/>
<path fill="#000000" opacity="1.000000" stroke="none" 
	d="
M66.041344,269.704712 
	C67.570000,267.448975 69.152542,266.040375 71.144432,268.596985 
	C72.092827,269.814270 72.397728,271.783386 70.806366,272.425964 
	C68.729149,273.264740 66.302963,273.309357 66.041344,269.704712 
z"/>
</svg>